<svg preserveAspectRatio="none" width="100%" height="100%" overflow="visible" style="display: block;" viewBox="0 0 32 32" fill="none" xmlns="http://www.w3.org/2000/svg">
<g id="material-symbols:lock-outline">
<path id="Vector" d="M8 29.3333C7.26667 29.3333 6.63911 29.0724 6.11733 28.5507C5.59555 28.0289 5.33422 27.4009 5.33333 26.6667V13.3333C5.33333 12.6 5.59467 11.9724 6.11733 11.4507C6.64 10.9289 7.26756 10.6676 8 10.6667H9.33333V8C9.33333 6.15556 9.98356 4.58356 11.284 3.284C12.5844 1.98444 14.1564 1.33422 16 1.33333C17.8436 1.33244 19.416 1.98267 20.7173 3.284C22.0187 4.58533 22.6684 6.15733 22.6667 8V10.6667H24C24.7333 10.6667 25.3613 10.928 25.884 11.4507C26.4067 11.9733 26.6676 12.6009 26.6667 13.3333V26.6667C26.6667 27.4 26.4058 28.028 25.884 28.5507C25.3622 29.0733 24.7342 29.3342 24 29.3333H8ZM8 26.6667H24V13.3333H8V26.6667ZM16 22.6667C16.7333 22.6667 17.3613 22.4058 17.884 21.884C18.4067 21.3622 18.6676 20.7342 18.6667 20C18.6658 19.2658 18.4049 18.6382 17.884 18.1173C17.3631 17.5964 16.7351 17.3351 16 17.3333C15.2649 17.3316 14.6373 17.5929 14.1173 18.1173C13.5973 18.6418 13.336 19.2693 13.3333 20C13.3307 20.7307 13.592 21.3587 14.1173 21.884C14.6427 22.4093 15.2702 22.6702 16 22.6667ZM12 10.6667H20V8C20 6.88889 19.6111 5.94444 18.8333 5.16667C18.0556 4.38889 17.1111 4 16 4C14.8889 4 13.9444 4.38889 13.1667 5.16667C12.3889 5.94444 12 6.88889 12 8V10.6667Z" fill="var(--fill-0, black)"/>
</g>
</svg>
